<svg width="300" height="200" viewBox="0 0 300 200" fill="none" xmlns="http://www.w3.org/2000/svg">
<!-- 배경 -->
<rect width="300" height="200" fill="#E3F2FD"/>
<!-- 물결 -->
<path d="M0 120 Q50 110 100 120 Q150 130 200 120 Q250 110 300 120 L300 200 L0 200 Z" fill="#2196F3"/>
<path d="M0 140 Q50 130 100 140 Q150 150 200 140 Q250 130 300 140 L300 200 L0 200 Z" fill="#1976D2"/>
<!-- 보트 -->
<path d="M50 100 L250 100 L240 130 L60 130 Z" fill="#8B4513" stroke="#654321" stroke-width="2"/>
<!-- 노 -->
<rect x="40" y="70" width="8" height="60" fill="#654321" transform="rotate(-15 44 100)"/>
<rect x="252" y="70" width="8" height="60" fill="#654321" transform="rotate(15 256 100)"/>
<!-- 사람 -->
<circle cx="150" cy="80" r="12" fill="#FDBCB4"/>
<rect x="142" y="90" width="16" height="20" fill="#4A90E2" rx="2"/>
<!-- 팔 -->
<rect x="135" y="92" width="8" height="15" fill="#FDBCB4" transform="rotate(-30 139 99)"/>
<rect x="157" y="92" width="8" height="15" fill="#FDBCB4" transform="rotate(30 161 99)"/>
</svg>