<svg width="300" height="200" viewBox="0 0 300 200" fill="none" xmlns="http://www.w3.org/2000/svg">
<!-- 배경 -->
<rect width="300" height="200" fill="#FFF8E1"/>
<!-- 얼굴 일부 -->
<ellipse cx="150" cy="100" rx="120" ry="90" fill="#FDBCB4"/>
<!-- 눈썹 -->
<path d="M70 60 Q100 50 130 60" stroke="#000" stroke-width="3" fill="none"/>
<path d="M170 60 Q200 50 230 60" stroke="#000" stroke-width="3" fill="none"/>
<!-- 눈 (크게 뜨고 있음) -->
<ellipse cx="100" cy="90" rx="35" ry="30" fill="#FFF" stroke="#000" stroke-width="2"/>
<ellipse cx="200" cy="90" rx="35" ry="30" fill="#FFF" stroke="#000" stroke-width="2"/>
<!-- 동공 -->
<circle cx="100" cy="90" r="18" fill="#4A4A4A"/>
<circle cx="200" cy="90" r="18" fill="#4A4A4A"/>
<!-- 눈동자 반사광 -->
<circle cx="108" cy="82" r="6" fill="#FFF"/>
<circle cx="208" cy="82" r="6" fill="#FFF"/>
<!-- 속눈썹 -->
<path d="M65 90 L60 88 M65 85 L60 82 M65 95 L60 98" stroke="#000" stroke-width="2"/>
<path d="M135 90 L140 88 M135 85 L140 82 M135 95 L140 98" stroke="#000" stroke-width="2"/>
<path d="M165 90 L160 88 M165 85 L160 82 M165 95 L160 98" stroke="#000" stroke-width="2"/>
<path d="M235 90 L240 88 M235 85 L240 82 M235 95 L240 98" stroke="#000" stroke-width="2"/>
</svg>