<svg width="300" height="200" viewBox="0 0 300 200" fill="none" xmlns="http://www.w3.org/2000/svg">
<!-- 하늘 배경 -->
<rect width="300" height="200" fill="#B0BEC5"/>
<!-- 언덕 -->
<path d="M0 150 Q100 120 200 130 Q300 140 300 200 L0 200 Z" fill="#ECEFF1"/>
<path d="M0 170 Q150 140 300 160 L300 200 L0 200 Z" fill="#CFD8DC"/>
<!-- 눈송이들 -->
<circle cx="50" cy="40" r="3" fill="#FFF"/>
<circle cx="80" cy="60" r="2" fill="#FFF"/>
<circle cx="120" cy="30" r="3" fill="#FFF"/>
<circle cx="150" cy="50" r="2" fill="#FFF"/>
<circle cx="180" cy="70" r="3" fill="#FFF"/>
<circle cx="220" cy="40" r="2" fill="#FFF"/>
<circle cx="250" cy="60" r="3" fill="#FFF"/>
<circle cx="30" cy="80" r="2" fill="#FFF"/>
<circle cx="70" cy="100" r="3" fill="#FFF"/>
<circle cx="110" cy="90" r="2" fill="#FFF"/>
<circle cx="140" cy="110" r="3" fill="#FFF"/>
<circle cx="170" cy="100" r="2" fill="#FFF"/>
<circle cx="200" cy="90" r="3" fill="#FFF"/>
<circle cx="230" cy="110" r="2" fill="#FFF"/>
<circle cx="260" cy="100" r="3" fill="#FFF"/>
<circle cx="40" cy="130" r="2" fill="#FFF"/>
<circle cx="90" cy="140" r="3" fill="#FFF"/>
<circle cx="130" cy="130" r="2" fill="#FFF"/>
<circle cx="160" cy="140" r="3" fill="#FFF"/>
<circle cx="190" cy="130" r="2" fill="#FFF"/>
<circle cx="220" cy="140" r="3" fill="#FFF"/>
<circle cx="270" cy="130" r="2" fill="#FFF"/>
<!-- 눈송이 애니메이션을 위한 추가 눈송이 -->
<circle cx="45" cy="20" r="2" fill="#FFF" opacity="0.8"/>
<circle cx="85" cy="45" r="3" fill="#FFF" opacity="0.7"/>
<circle cx="125" cy="15" r="2" fill="#FFF" opacity="0.9"/>
<circle cx="165" cy="35" r="3" fill="#FFF" opacity="0.8"/>
<circle cx="205" cy="25" r="2" fill="#FFF" opacity="0.7"/>
<circle cx="245" cy="45" r="3" fill="#FFF" opacity="0.9"/>
<circle cx="285" cy="20" r="2" fill="#FFF" opacity="0.8"/>
</svg>